<svg width="24" height="24" viewBox="0 0 24 24" fill="none" xmlns="http://www.w3.org/2000/svg">
<path d="M18.5209 10.6055C19.3316 11.0615 19.737 11.2895 19.872 11.5892C19.9897 11.8504 19.9897 12.1496 19.872 12.4108C19.737 12.7105 19.3316 12.9385 18.5209 13.3945L7.38442 19.6588C6.6006 20.0997 6.20869 20.3201 5.88767 20.2838C5.60761 20.2522 5.35391 20.1038 5.18901 19.8752C5 19.6132 5 19.1636 5 18.2642V5.73576C5 4.83644 5 4.38679 5.18901 4.12479C5.35391 3.89621 5.60761 3.74784 5.88767 3.71618C6.20869 3.67989 6.6006 3.90034 7.38442 4.34123L18.5209 10.6055Z" fill="white" stroke="white" stroke-linecap="round" stroke-linejoin="round"/>
</svg>
